<svg xmlns="http://www.w3.org/2000/svg" xmlns:xlink="http://www.w3.org/1999/xlink" width="132" height="36" viewBox="0 0 132 36">
    <defs>
        <linearGradient id="a" x1="54.078%" x2="54.078%" y1="96.285%" y2="0%">
            <stop offset="0%" stop-color="#24BDEF"/>
            <stop offset="25.837%" stop-color="#10B3E7"/>
            <stop offset="64.732%" stop-color="#0DB0E5"/>
            <stop offset="100%" stop-color="#3CD6E8"/>
        </linearGradient>
        <rect id="b" width="130" height="34" rx="8"/>
        <filter id="c" width="102.7%" height="110.3%" x="-1.3%" y="-5.1%" filterUnits="objectBoundingBox">
            <feOffset dy="1.5" in="SourceAlpha" result="shadowOffsetInner1"/>
            <feComposite in="shadowOffsetInner1" in2="SourceAlpha" k2="-1" k3="1" operator="arithmetic" result="shadowInnerInner1"/>
            <feColorMatrix in="shadowInnerInner1" values="0 0 0 0 0.116129524 0 0 0 0 0.406584584 0 0 0 0 0.745110544 0 0 0 1 0"/>
        </filter>
        <path id="e" d="M65.008 25.632c0 .488-.285.932-.73 1.138a1.275 1.275 0 0 1-1.353-.17l-6.951-5.697h-3.702A1.264 1.264 0 0 1 51 19.646v-5.01c0-.695.57-1.258 1.272-1.258h3.702l6.952-5.698a1.28 1.28 0 0 1 1.352-.169c.445.207.73.65.73 1.138v16.983zm4.887-1.965c-.031.002-.06.004-.092.004-.335 0-.66-.132-.898-.369l-.17-.168a1.247 1.247 0 0 1-.123-1.639 7.205 7.205 0 0 0 1.455-4.354c0-1.698-.571-3.291-1.65-4.607a1.247 1.247 0 0 1 .087-1.682l.17-.168c.253-.251.594-.388.962-.366.359.017.694.184.921.46a9.879 9.879 0 0 1 2.29 6.363c0 2.19-.7 4.273-2.024 6.025-.222.292-.56.475-.928.501zm5.257 3.887a1.278 1.278 0 0 1-1.871.078l-.167-.165a1.248 1.248 0 0 1-.074-1.7 13.337 13.337 0 0 0 3.18-8.626c0-3.277-1.21-6.433-3.405-8.884a1.248 1.248 0 0 1 .052-1.721l.166-.166c.248-.245.57-.38.938-.37.35.01.68.164.913.422A16.024 16.024 0 0 1 79 17.142c0 3.806-1.366 7.504-3.848 10.412z"/>
        <filter id="d" width="125%" height="131.8%" x="-12.5%" y="-11.4%" filterUnits="objectBoundingBox">
            <feOffset dy="1" in="SourceAlpha" result="shadowOffsetOuter1"/>
            <feGaussianBlur in="shadowOffsetOuter1" result="shadowBlurOuter1" stdDeviation="1"/>
            <feColorMatrix in="shadowBlurOuter1" values="0 0 0 0 0 0 0 0 0 0 0 0 0 0 0 0 0 0 0.5 0"/>
        </filter>
    </defs>
    <g fill="none" fill-rule="evenodd">
        <g transform="translate(1 1)">
            <use fill="url(#a)" xlink:href="#b"/>
            <use fill="#000" filter="url(#c)" xlink:href="#b"/>
            <rect width="131" height="35" x="-.5" y="-.5" stroke="#FFF" stroke-opacity=".7" rx="8"/>
        </g>
        <g fill-rule="nonzero" transform="translate(1 1)">
            <use fill="#000" filter="url(#d)" xlink:href="#e"/>
            <use fill="#FFF" fill-rule="evenodd" xlink:href="#e"/>
        </g>
    </g>
</svg>
