<svg id="圖層_1" data-name="圖層 1" xmlns="http://www.w3.org/2000/svg" viewBox="0 0 64 64"><defs><style>.cls-1{fill:#001f3a;}.cls-2{fill:#f7f8f8;}</style></defs><rect class="cls-1" x="-0.38" y="-0.36" width="64.36" height="64.36" rx="7.15"/><path class="cls-2" d="M26.75,30.34a9.41,9.41,0,0,0,3-4.33l-7-13-.53-.14a28.35,28.35,0,0,0-6.61-.61H9.33V51.39h9.45a28.44,28.44,0,0,0,7-.73A11.46,11.46,0,0,0,30.45,48,10.61,10.61,0,0,0,32,34.06,10,10,0,0,0,26.75,30.34ZM15.57,17.69h2.19a7.2,7.2,0,0,1,4.82,1.43,5.25,5.25,0,0,1,1.66,4.2,5.47,5.47,0,0,1-1.62,4.29q-1.62,1.45-5.1,1.46H15.57ZM25.63,44.27q-2,1.57-6.21,1.57H15.57V34h3.16q5,0,7,1.7a5.4,5.4,0,0,1,2,4.26A5.31,5.31,0,0,1,25.63,44.27Z"/><polygon class="cls-2" points="35.27 51.36 41.25 51.36 41.25 36.15 54.28 12.27 47.35 12.24 35.27 34.52 35.27 51.36"/></svg>