<svg id="圖層_1" data-name="圖層 1" xmlns="http://www.w3.org/2000/svg" xmlns:xlink="http://www.w3.org/1999/xlink" viewBox="0 0 547.08481 487.19257"><defs><style>.cls-1{fill:url(#未命名漸層_19);}.cls-2{fill:url(#未命名漸層_19-2);}.cls-3{fill:url(#未命名漸層_19-3);}.cls-4{fill:url(#未命名漸層_19-4);}.cls-5{fill:url(#未命名漸層_19-5);}.cls-6{fill:url(#未命名漸層_19-6);}.cls-7{fill:#f7c9dd;}.cls-8{fill:#fff;}</style><linearGradient id="未命名漸層_19" x1="85.05135" y1="-10.07332" x2="85.05135" y2="297.14276" gradientUnits="userSpaceOnUse"><stop offset="0" stop-color="#ce93bb"/><stop offset="1" stop-color="#f9d3cb"/></linearGradient><linearGradient id="未命名漸層_19-2" x1="195.81191" y1="-10.07332" x2="195.81191" y2="297.14276" xlink:href="#未命名漸層_19"/><linearGradient id="未命名漸層_19-3" x1="134.21184" y1="-10.07332" x2="134.21184" y2="297.14276" xlink:href="#未命名漸層_19"/><linearGradient id="未命名漸層_19-4" x1="187.25311" y1="-10.07332" x2="187.25311" y2="297.14276" xlink:href="#未命名漸層_19"/><linearGradient id="未命名漸層_19-5" x1="83.06121" y1="-10.07332" x2="83.06121" y2="297.14276" xlink:href="#未命名漸層_19"/><linearGradient id="未命名漸層_19-6" x1="143.90215" y1="-5.68054" x2="143.90215" y2="296.5966" xlink:href="#未命名漸層_19"/></defs><path class="cls-1" d="M80.03267,142.01623l1.28138-34.45391a.35606.35606,0,0,1,.66056-.16844c2.432,3.77931,2.67271,8.26473,2.50157,12.86712l-.77065,31.49512a1.06431,1.06431,0,0,0,1.96767.58833l2.528-4.063c3.407-5.47559,6.576-11.69934,6.81572-18.14382L96.15019,87.859a.35651.35651,0,0,1,.66138-.17235c2.42153,3.77581,2.66125,8.25436,2.49039,12.84974l-.45386,30.34984a1.06477,1.06477,0,0,0,1.9949.53242q1.6696-2.99438,3.1232-5.57815a44.24226,44.24226,0,0,0,5.72745-23.5899q-.09542-2.19353-.0973-4.50119c0-11.74745,2.06753-26.41313,3.36778-34.47506A1.04941,1.04941,0,0,0,111.95,62.05185c-8.16111-.186-25.92492.4242-33.99709,8.59838-10.66322,10.798-12.71122,15.69723-13.55545,46.76194a300.36325,300.36325,0,0,1-7.244,56.01873,1.05064,1.05064,0,0,0,1.5331,1.15928,51.45714,51.45714,0,0,0,10.16665-7.809C74.69547,161.22016,79.733,150.07641,80.03267,142.01623Z" transform="translate(-38.45443 -10.61622)"/><path class="cls-2" d="M215.43108,122.41855c-.84423-31.06471-2.89222-35.964-13.55544-46.76194-6.70294-6.78756-20.09668-8.36-29.12116-8.59164a1.04636,1.04636,0,0,0-1.06011,1.142,93.37909,93.37909,0,0,1-1.65208,27.87535,46.54542,46.54542,0,0,0,4.82527,32.99829q1.86669,3.3093,4.11782,7.344a1.06457,1.06457,0,0,0,1.99489-.532l-.45371-30.34984c-.17087-4.59538.06886-9.07393,2.49039-12.84973a.35652.35652,0,0,1,.66137.17235L184.8116,135.144c.23973,6.44448,3.40874,12.66823,6.81572,18.14382l2.528,4.063a1.06432,1.06432,0,0,0,1.96768-.58833l-.77066-31.49512c-.17114-4.60239.06953-9.08781,2.50157-12.86725a.35608.35608,0,0,1,.66057.16844l1.28137,34.454c.2997,8.06018,5.3372,19.20393,11.17947,24.765a51.393,51.393,0,0,0,10.18457,7.819,1.0416,1.0416,0,0,0,1.51976-1.14945A300.36257,300.36257,0,0,1,215.43108,122.41855Z" transform="translate(-38.45443 -10.61622)"/><path class="cls-3" d="M111.54436,44.23211c3.103,1.8623,3.30942,10.13768,6.206,13.03422,0,0-4.39918,23.34842-4.39918,40.48307,0,24.83719,8.55405,39.619,12.30884,53.07368s-3.129,72.59239,4.69348,72.27949S144.121,215.593,147.25,206.51894s-6.88378-30.97685-8.13537-43.80571,3.75478-21.90291,15.95784-40.36394c12.20292-18.461,15.3319-38.79932,11.99432-62.05827-2.52085-17.56708-16.58364-37.54773-35.74458-35.64648C119.1519,25.8522,113.833,32.10129,111.54436,37.81849c0,0-11.43779,2.48258-11.43779,4.55132C100.10657,44.43923,108.44057,42.36981,111.54436,44.23211Zm15.43823-10.36959a4.40787,4.40787,0,1,1-4.40794,4.4078A4.40784,4.40784,0,0,1,126.98259,33.86252Z" transform="translate(-38.45443 -10.61622)"/><path class="cls-4" d="M179.24383,45.386a.886.886,0,0,1,.04744.82308l-2.83455,6.23978a.88593.88593,0,0,0,1.00634,1.2295L184.14,52.1326a.88582.88582,0,0,1,.79747.20928l5.05853,4.62395a.88587.88587,0,0,0,1.48027-.57715l.59319-6.82772a.88577.88577,0,0,1,.44536-.69385l5.961-3.38206a.8858.8858,0,0,0-.09163-1.58605l-6.31026-2.67419a.88567.88567,0,0,1-.52217-.63793l-1.37449-6.71425a.88586.88586,0,0,0-1.53674-.40319l-4.49324,5.1751a.886.886,0,0,1-.7681.29955l-6.81046-.76755a.8858.8858,0,0,0-.85825,1.33689Z" transform="translate(-38.45443 -10.61622)"/><path class="cls-5" d="M103.28825,210.00058l-6.935-9.60581a1.53122,1.53122,0,0,1-.20079-1.411l3.98145-11.15871a1.53148,1.53148,0,0,0-1.91122-1.97253l-11.27864,3.62731a1.53145,1.53145,0,0,1-1.404-.24512l-9.38225-7.23481a1.53141,1.53141,0,0,0-2.46654,1.20821l-.03557,11.84757a1.53151,1.53151,0,0,1-.6669,1.25955l-9.78,6.6873a1.53134,1.53134,0,0,0,.38687,2.71907l11.25668,3.695a1.53155,1.53155,0,0,1,.99179,1.02359L79.182,221.80786a1.53138,1.53138,0,0,0,2.70559.47244l6.99265-9.564a1.53121,1.53121,0,0,1,1.2799-.62687l11.84286.33836A1.53136,1.53136,0,0,0,103.28825,210.00058Z" transform="translate(-38.45443 -10.61622)"/><path class="cls-6" d="M159,170.68041A42.74,42.74,0,0,1,98.5583,231.12126a1.062,1.062,0,0,0-1.72935,1.13857,48.81291,48.81291,0,1,0,63.30985-63.30912A1.06224,1.06224,0,0,0,159,170.68041Z" transform="translate(-38.45443 -10.61622)"/><circle class="cls-7" cx="49.82163" cy="14.57527" r="3.22472"/><circle class="cls-7" cx="13.73201" cy="123.12421" r="3.22472"/><circle class="cls-7" cx="125.38642" cy="135.75969" r="3.22472"/><circle class="cls-7" cx="21.89495" cy="217.33518" r="3.22472"/><circle class="cls-7" cx="194.79683" cy="190.03374" r="3.22472"/><circle class="cls-7" cx="3.52778" cy="144.53932" r="3.22472"/><circle class="cls-7" cx="166.57904" cy="19.05159" r="3.22472"/><circle class="cls-7" cx="8.47836" cy="58.38917" r="3.22472"/><circle class="cls-7" cx="63.87505" cy="259.0074" r="3.22472"/><circle class="cls-7" cx="179.30254" cy="53.91285" r="3.22472"/><circle class="cls-7" cx="189.01011" cy="110.78184" r="3.22472"/><circle class="cls-7" cx="178.80589" cy="225.40747" r="3.22472"/><circle class="cls-7" cx="37.34122" cy="41.07049" r="5.25364"/><circle class="cls-7" cx="5.25364" cy="91.17639" r="5.25364"/><circle class="cls-7" cx="196.04842" cy="85.92275" r="5.25364"/><circle class="cls-7" cx="201.30207" cy="141.3146" r="5.25364"/><circle class="cls-7" cx="122.16169" cy="5.25364" r="5.25364"/><circle class="cls-7" cx="168.55217" cy="184.7801" r="5.25364"/><circle class="cls-7" cx="150.05027" cy="250.55487" r="5.25364"/><circle class="cls-7" cx="46.59691" cy="238.79599" r="5.25364"/><circle class="cls-7" cx="6.7525" cy="181.55538" r="5.25364"/><circle class="cls-7" cx="62.3707" cy="154.21349" r="5.25364"/><path class="cls-8" d="M435.73228,231.5307c-27.21714,0-47.3707-7.22686-61.61173-22.093-17.00717-17.75392-25.27466-45.84026-25.27466-85.86338s8.26749-68.109,25.27466-85.863c14.241-14.86618,34.39459-22.093,61.61173-22.093s47.37071,7.22686,61.61174,22.093c17.00717,17.75392,25.27466,45.83983,25.27466,85.863s-8.26749,68.10946-25.27466,85.86338C483.103,224.30384,462.94943,231.5307,435.73228,231.5307Zm0-209.75283c-25.44824,0-44.14655,6.60557-57.16348,20.19438-15.85569,16.55174-23.56333,43.24384-23.56333,81.602s7.70764,65.05072,23.56333,81.60246c13.01693,13.5888,31.71524,20.19437,57.16348,20.19437s44.14655-6.60557,57.16349-20.19437c15.85568-16.55174,23.56333-43.24427,23.56333-81.60246s-7.70765-65.05029-23.56333-81.602C479.87883,28.38344,461.18053,21.77787,435.73228,21.77787Z" transform="translate(-38.45443 -10.61622)"/><path class="cls-8" d="M393.63216,123.149l.90088-24.223a.25033.25033,0,0,1,.46441-.11842c1.70986,2.65707,1.87907,5.81057,1.75875,9.04631l-.54182,22.14284a.74828.74828,0,0,0,1.38339.41363l1.77732-2.8565c2.3953-3.84965,4.62329-8.22529,4.79183-12.75612l.79677-29.72428a.25064.25064,0,0,1,.465-.12118c1.70247,2.65461,1.871,5.80328,1.75088,9.03409l-.31908,21.33765a.74859.74859,0,0,0,1.40252.37431q1.17383-2.1052,2.19578-3.92174a31.10469,31.10469,0,0,0,4.02672-16.585q-.06707-1.54218-.0684-3.16459c0-8.25912,1.45359-18.56992,2.36774-24.23791a.73779.73779,0,0,0-.713-.85948c-5.73772-.13074-18.22668.29824-23.90187,6.04515-7.49685,7.59158-8.9367,11.036-9.53024,32.87627a211.17319,211.17319,0,0,1-5.09292,39.38432.73866.73866,0,0,0,1.07785.815,36.1772,36.1772,0,0,0,7.14773-5.49016C389.87981,136.65042,393.42146,128.81574,393.63216,123.149Z" transform="translate(-38.45443 -10.61622)"/><path class="cls-8" d="M488.82486,109.37071c-.59354-21.84024-2.0334-25.28469-9.53024-32.87627-4.71254-4.772-14.12909-5.87756-20.47381-6.04042a.73567.73567,0,0,0-.74532.80292,65.65063,65.65063,0,0,1-1.1615,19.59794,32.724,32.724,0,0,0,3.39243,23.19966q1.31238,2.32662,2.89506,5.16322a.74845.74845,0,0,0,1.40252-.374l-.319-21.33764c-.12013-3.23081.04841-6.37948,1.75088-9.03409a.25066.25066,0,0,1,.465.12117l.79676,29.72429c.16854,4.53083,2.39654,8.90647,4.79184,12.75612l1.77732,2.8565a.74827.74827,0,0,0,1.38338-.41364l-.54181-22.14283c-.12032-3.23574.04888-6.38924,1.75874-9.04641a.25035.25035,0,0,1,.46442.11843l.90088,24.22313c.2107,5.66675,3.75235,13.50144,7.85979,17.41116a36.13245,36.13245,0,0,0,7.16033,5.49717.7323.7323,0,0,0,1.06847-.80813A211.17215,211.17215,0,0,1,488.82486,109.37071Z" transform="translate(-38.45443 -10.61622)"/><path class="cls-8" d="M415.78665,54.40124c2.18157,1.3093,2.32671,7.12736,4.36314,9.16379,0,0-3.09287,16.41526-3.09287,28.46188,0,17.46194,6.014,27.8544,8.6538,37.31378s-2.19985,51.03654,3.29978,50.81655,9.67937-5.27965,11.87922-11.65923-4.83968-21.77847-5.71962-30.79787,2.63982-15.399,11.21926-28.37813c8.57934-12.97914,10.77919-27.2781,8.43268-43.63045-1.77229-12.35064-11.65923-26.39817-25.13045-25.06148-8.55641.849-12.29588,5.24251-13.90494,9.262,0,0-8.04141,1.74539-8.04141,3.19983C407.74524,54.54686,413.60451,53.09194,415.78665,54.40124Zm10.85394-7.2904a3.099,3.099,0,1,1-3.099,3.09893A3.099,3.099,0,0,1,426.64059,47.11084Z" transform="translate(-38.45443 -10.61622)"/><path class="cls-8" d="M463.38319,55.2125a.62291.62291,0,0,1,.03335.57867l-1.99285,4.38692a.62285.62285,0,0,0,.70751.8644l4.69426-1.08676a.62279.62279,0,0,1,.56067.14713l3.55643,3.2509a.62282.62282,0,0,0,1.04072-.40577l.417-4.80027a.62272.62272,0,0,1,.31311-.48781l4.19091-2.37778a.62276.62276,0,0,0-.06443-1.11508l-4.43646-1.88011a.62267.62267,0,0,1-.36712-.4485l-.96634-4.7205a.62282.62282,0,0,0-1.08042-.28346l-3.159,3.63838a.62287.62287,0,0,1-.54.21061l-4.78814-.53964a.62277.62277,0,0,0-.6034.93991Z" transform="translate(-38.45443 -10.61622)"/><path class="cls-8" d="M409.98214,170.9458l-4.87568-6.75342a1.07651,1.07651,0,0,1-.14116-.992l2.79917-7.8452a1.07671,1.07671,0,0,0-1.34369-1.3868l-7.92952,2.5502a1.0767,1.0767,0,0,1-.98709-.17233l-6.59625-5.08648a1.07666,1.07666,0,0,0-1.73411.84944l-.025,8.32951a1.07671,1.07671,0,0,1-.46886.88553l-6.87592,4.70155a1.07662,1.07662,0,0,0,.272,1.91166l7.91407,2.59776a1.07677,1.07677,0,0,1,.69729.71964l2.3467,7.99214a1.07665,1.07665,0,0,0,1.90218.33216l4.91623-6.72405a1.07651,1.07651,0,0,1,.89984-.44073l8.32619.23789A1.07664,1.07664,0,0,0,409.98214,170.9458Z" transform="translate(-38.45443 -10.61622)"/><path class="cls-8" d="M449.15065,143.30151a30.0486,30.0486,0,0,1-42.49393,42.49332.74666.74666,0,0,0-1.21583.80047,34.31822,34.31822,0,1,0,44.51039-44.50987A.74681.74681,0,0,0,449.15065,143.30151Z" transform="translate(-38.45443 -10.61622)"/><circle class="cls-8" cx="360.9733" cy="30.3984" r="2.26716"/><circle class="cls-8" cx="335.60026" cy="106.71441" r="2.26716"/><circle class="cls-8" cx="414.09959" cy="115.59786" r="2.26716"/><circle class="cls-8" cx="341.33927" cy="172.95002" r="2.26716"/><circle class="cls-8" cx="462.89902" cy="153.75557" r="2.26716"/><circle class="cls-8" cx="328.42611" cy="121.77043" r="2.26716"/><circle class="cls-8" cx="443.06033" cy="33.5455" r="2.26716"/><circle class="cls-8" cx="331.90665" cy="61.20203" r="2.26716"/><circle class="cls-8" cx="370.85364" cy="202.24794" r="2.26716"/><circle class="cls-8" cx="452.00566" cy="58.05493" r="2.26716"/><circle class="cls-8" cx="458.83063" cy="98.03702" r="2.26716"/><circle class="cls-8" cx="451.65649" cy="178.62529" r="2.26716"/><circle class="cls-8" cx="352.19887" cy="49.02602" r="3.69361"/><circle class="cls-8" cx="329.63949" cy="84.25329" r="3.69361"/><circle class="cls-8" cx="463.77896" cy="80.55969" r="3.69361"/><circle class="cls-8" cx="467.47257" cy="119.50327" r="3.69361"/><circle class="cls-8" cx="411.83243" cy="23.84476" r="3.69361"/><circle class="cls-8" cx="444.44755" cy="150.06196" r="3.69361"/><circle class="cls-8" cx="431.43967" cy="196.30533" r="3.69361"/><circle class="cls-8" cx="358.70614" cy="188.03818" r="3.69361"/><circle class="cls-8" cx="330.69328" cy="147.7948" r="3.69361"/><circle class="cls-8" cx="369.796" cy="128.57192" r="3.69361"/><path class="cls-8" d="M396.92915,258.811v8.30721h-2.48264V258.811l-5.58884-7.57855h2.67656l4.1536,5.65213,4.1536-5.65213h2.6545Z" transform="translate(-38.45443 -10.61622)"/><path class="cls-8" d="M407.1802,257.698h5.80134v2.24807H407.1802v4.92406H414.224v2.24808H404.6964V251.23245H414.224v2.2266H407.1802Z" transform="translate(-38.45443 -10.61622)"/><path class="cls-8" d="M419.63635,256.90606v10.21215h-2.48379V250.4829l9.977,10.94022V251.23245h2.5047v16.61383Z" transform="translate(-38.45443 -10.61622)"/><path class="cls-8" d="M432.94831,260.24566V258.105h6.68037v2.14066Z" transform="translate(-38.45443 -10.61622)"/><path class="cls-8" d="M449.90063,258.811v8.30721H447.418V258.811l-5.58884-7.57855h2.67656l4.1536,5.65213,4.1536-5.65213h2.65449Z" transform="translate(-38.45443 -10.61622)"/><path class="cls-8" d="M460.15167,257.698H465.953v2.24807h-5.80134v4.92406h7.04382v2.24808h-9.52762V251.23245h9.52762v2.2266h-7.04382Z" transform="translate(-38.45443 -10.61622)"/><path class="cls-8" d="M472.609,256.90606v10.21215h-2.4838V250.4829l9.977,10.94022V251.23245h2.5047v16.61383Z" transform="translate(-38.45443 -10.61622)"/><path class="cls-8" d="M529.56347,474.41281c-17.53439,0-30.51814-4.65584-39.6928-14.23324-10.95671-11.4378-16.283-29.53217-16.283-55.3167s5.32625-43.87862,16.283-55.31642c9.17466-9.5774,22.15841-14.23323,39.6928-14.23323s30.51815,4.65583,39.6928,14.23323c10.95671,11.4378,16.283,29.5319,16.283,55.31642s-5.32626,43.8789-16.283,55.3167C560.08162,469.757,547.09787,474.41281,529.56347,474.41281Zm0-135.13134c-16.39479,0-28.441,4.25558-36.82705,13.01C482.52154,362.95482,477.556,380.151,477.556,404.86287s4.96558,41.90834,15.18046,52.57164c8.386,8.75446,20.43226,13.01,36.82705,13.01s28.441-4.25558,36.827-13.01c10.21488-10.6633,15.18046-27.85972,15.18046-52.57164s-4.96558-41.908-15.18046-52.57136C558.00448,343.53705,545.95827,339.28147,529.56347,339.28147Z" transform="translate(-38.45443 -10.61622)"/><path class="cls-8" d="M502.44085,404.58888l.58039-15.60547a.16127.16127,0,0,1,.29919-.0763,9.79149,9.79149,0,0,1,1.13306,5.828l-.34906,14.26532a.48207.48207,0,0,0,.89123.26648l1.145-1.84027c1.54315-2.48011,2.97852-5.29908,3.0871-8.218l.5133-19.1496a.16148.16148,0,0,1,.29957-.07806,9.80282,9.80282,0,0,1,1.128,5.82013l-.20557,13.74658a.48227.48227,0,0,0,.90356.24115q.75622-1.35627,1.41462-2.52655a20.039,20.039,0,0,0,2.59417-10.68476q-.04321-.99353-.04406-2.03875a109.12865,109.12865,0,0,1,1.52539-15.615.47532.47532,0,0,0-.45935-.55371c-3.69648-.08423-11.74237.19213-15.39856,3.89453-4.82978,4.8908-5.75739,7.10986-6.13977,21.18023a136.04643,136.04643,0,0,1-3.28107,25.373.47587.47587,0,0,0,.6944.52508,23.30688,23.30688,0,0,0,4.60485-3.537A18.84964,18.84964,0,0,0,502.44085,404.58888Z" transform="translate(-38.45443 -10.61622)"/><path class="cls-8" d="M563.76788,395.71235c-.38239-14.07037-1.31-16.28943-6.13977-21.18024-3.036-3.07434-9.10254-3.78656-13.19006-3.89147a.47393.47393,0,0,0-.48017.51727,42.29465,42.29465,0,0,1-.74829,12.62579,21.08215,21.08215,0,0,0,2.18555,14.94617q.84549,1.4989,1.86511,3.32635a.48218.48218,0,0,0,.90356-.241l-.2055-13.74659a9.80279,9.80279,0,0,1,1.128-5.82012.16148.16148,0,0,1,.29956.07806l.51331,19.1496c.10858,2.91894,1.54394,5.73791,3.08709,8.218l1.145,1.84028a.48207.48207,0,0,0,.89124-.26648l-.34906-14.26532a9.79168,9.79168,0,0,1,1.13305-5.82807.16129.16129,0,0,1,.2992.0763l.58038,15.60553a18.84964,18.84964,0,0,0,5.0636,11.217,23.27787,23.27787,0,0,0,4.613,3.5415.47178.47178,0,0,0,.68835-.52063A136.046,136.046,0,0,1,563.76788,395.71235Z" transform="translate(-38.45443 -10.61622)"/><path class="cls-8" d="M516.71368,360.29878c1.40546.8435,1.499,4.59173,2.81091,5.90368,0,0-1.99255,10.57538-1.99255,18.33631,0,11.24969,3.87445,17.94494,5.57513,24.03906s-1.41723,32.87982,2.12586,32.7381,6.23584-3.40137,7.65307-7.51135-3.11792-14.03058-3.68481-19.84125,1.70068-9.92066,7.22791-18.28235c5.52716-8.36169,6.94439-17.57367,5.43267-28.10852-1.14178-7.95679-7.51135-17.00678-16.19006-16.14563-5.51239.547-7.92151,3.37744-8.95813,5.967,0,0-5.1806,1.12445-5.1806,2.06146C511.53308,360.39259,515.30786,359.45527,516.71368,360.29878Zm6.99255-4.69678a1.99649,1.99649,0,1,1-1.99652,1.99646A1.99648,1.99648,0,0,1,523.70623,355.602Z" transform="translate(-38.45443 -10.61622)"/><path class="cls-8" d="M547.37732,360.82142a.40129.40129,0,0,1,.02148.3728l-1.28387,2.82624a.40127.40127,0,0,0,.45581.55688l3.02423-.70013a.40117.40117,0,0,1,.3612.09479l2.2912,2.09436a.40125.40125,0,0,0,.67047-.26142l.26868-3.09253a.40118.40118,0,0,1,.20172-.31427l2.7-1.53186a.40121.40121,0,0,0-.0415-.71838l-2.85816-1.21124a.40118.40118,0,0,1-.23651-.28894l-.62256-3.04114a.40123.40123,0,0,0-.696-.18262l-2.03516,2.344a.40127.40127,0,0,1-.3479.13569l-3.08471-.34766a.40121.40121,0,0,0-.38874.60553Z" transform="translate(-38.45443 -10.61622)"/><path class="cls-8" d="M512.97418,435.38154l-3.14112-4.35083a.69356.69356,0,0,1-.09094-.6391l1.80335-5.0542a.69366.69366,0,0,0-.86566-.89343l-5.10853,1.64294a.69362.69362,0,0,1-.63592-.111l-4.24957-3.27692a.69363.69363,0,0,0-1.11719.54725l-.01611,5.36621a.69366.69366,0,0,1-.30207.57049l-4.42975,3.02893a.6936.6936,0,0,0,.17524,1.23157l5.09857,1.67358a.6937.6937,0,0,1,.44922.46363l1.51184,5.14886a.69362.69362,0,0,0,1.22546.214l3.16724-4.33191a.69354.69354,0,0,1,.57971-.28393l5.36407.15326A.69362.69362,0,0,0,512.97418,435.38154Z" transform="translate(-38.45443 -10.61622)"/><path class="cls-8" d="M538.20813,417.572a19.35853,19.35853,0,0,1-27.37632,27.37593.481.481,0,0,0-.78329.5157,22.1092,22.1092,0,1,0,28.67541-28.67508A.48113.48113,0,0,0,538.20813,417.572Z" transform="translate(-38.45443 -10.61622)"/><circle class="cls-8" cx="467.72016" cy="341.05835" r="1.4606"/><circle class="cls-8" cx="451.37382" cy="390.22424" r="1.4606"/><circle class="cls-8" cx="501.94629" cy="395.94732" r="1.4606"/><circle class="cls-8" cx="455.07112" cy="432.89593" r="1.4606"/><circle class="cls-8" cx="533.38488" cy="420.53008" r="1.4606"/><circle class="cls-8" cx="446.75194" cy="399.92394" r="1.4606"/><circle class="cls-8" cx="520.60398" cy="343.08584" r="1.4606"/><circle class="cls-8" cx="448.99425" cy="360.90331" r="1.4606"/><circle class="cls-8" cx="474.08549" cy="451.77084" r="1.4606"/><circle class="cls-8" cx="526.36693" cy="358.87581" r="1.4606"/><circle class="cls-8" cx="530.76386" cy="384.63391" r="1.4606"/><circle class="cls-8" cx="526.14198" cy="436.55217" r="1.4606"/><circle class="cls-8" cx="462.06732" cy="353.05902" r="2.37957"/><circle class="cls-8" cx="447.53365" cy="375.75387" r="2.37957"/><circle class="cls-8" cx="533.95177" cy="373.3743" r="2.37957"/><circle class="cls-8" cx="536.33134" cy="398.46335" r="2.37957"/><circle class="cls-8" cx="500.4857" cy="336.83623" r="2.37957"/><circle class="cls-8" cx="521.49769" cy="418.1505" r="2.37957"/><circle class="cls-8" cx="513.11748" cy="447.94237" r="2.37957"/><circle class="cls-8" cx="466.25957" cy="442.61633" r="2.37957"/><circle class="cls-8" cx="448.21254" cy="416.68991" r="2.37957"/><circle class="cls-8" cx="473.40411" cy="404.30574" r="2.37957"/><path class="cls-8" d="M504.56491,491.9879v5.35183h-1.59942V491.9879l-3.60056-4.88242h1.72435l2.67592,3.64133,2.67592-3.64133h1.71014Z" transform="translate(-38.45443 -10.61622)"/><path class="cls-8" d="M511.16905,491.27085h3.73746v1.4483h-3.73746v3.17228H515.707v1.4483h-6.13808V487.10548H515.707V488.54h-4.53792Z" transform="translate(-38.45443 -10.61622)"/><path class="cls-8" d="M519.19382,490.76065v6.57908h-1.60017V486.62259l6.42759,7.04814v-6.56525h1.61364v10.70331Z" transform="translate(-38.45443 -10.61622)"/><path class="cls-8" d="M527.76993,492.91216v-1.3791h4.30376v1.3791Z" transform="translate(-38.45443 -10.61622)"/><path class="cls-8" d="M538.6913,491.9879v5.35183h-1.59942V491.9879l-3.60056-4.88242h1.72435l2.67592,3.64133,2.67592-3.64133h1.71013Z" transform="translate(-38.45443 -10.61622)"/><path class="cls-8" d="M545.29544,491.27085h3.73746v1.4483h-3.73746v3.17228h4.53791v1.4483h-6.13808V487.10548h6.13808V488.54h-4.53791Z" transform="translate(-38.45443 -10.61622)"/><path class="cls-8" d="M553.321,490.76065v6.57908h-1.60016V486.62259l6.42759,7.04814v-6.56525H559.762v10.70331Z" transform="translate(-38.45443 -10.61622)"/></svg>