<?xml version="1.0" encoding="utf-8"?>
<!-- Generator: Adobe Illustrator 24.1.1, SVG Export Plug-In . SVG Version: 6.00 Build 0)  -->
<svg version="1.1" id="圖層_1" xmlns="http://www.w3.org/2000/svg" xmlns:xlink="http://www.w3.org/1999/xlink" width="59" height="59" x="0px" y="0px"
	 viewBox="0 0 59 59" style="enable-background:new 0 0 59 59;" xml:space="preserve">
<style type="text/css">
	.st0{fill-rule:evenodd;clip-rule:evenodd;fill:#FD8B3F;}
	.st1{fill:#FDC43F;}
	.st2{fill-rule:evenodd;clip-rule:evenodd;fill:#FFFFFF;}
</style>
<g>
	<g>
		<g>
			<g>
				<path class="st0" d="M47.3,51.7H11.7c-2.9,0-5.2-2.3-5.2-5.2v-34c0-2.9,2.3-5.2,5.2-5.2h35.6c2.9,0,5.2,2.3,5.2,5.2v34.1
					C52.5,49.4,50.2,51.7,47.3,51.7z"/>
				<path class="st1" d="M47.3,53.3H11.7c-3.7,0-6.7-3-6.7-6.7V12.5c0-3.7,3-6.7,6.7-6.7h35.6c3.7,0,6.7,3,6.7,6.7v34.1
					C54,50.2,51,53.3,47.3,53.3z M11.7,8.7c-2,0-3.7,1.7-3.7,3.7v34.1c0,2,1.7,3.7,3.7,3.7h35.6c2,0,3.7-1.7,3.7-3.7v-34
					c0-2-1.7-3.7-3.7-3.7H11.7V8.7z"/>
			</g>
			<g>
				<g transform="rotate(-45 32.536 17.55)">
					<g>
						<path id="g_26_" class="st2" d="M23.2,31.7c0.7,0.2,1.2,0.8,1.2,1.5v6.3c0,0.9-0.7,1.6-1.6,1.6h-1.6c-0.9,0-1.6-0.7-1.6-1.6
							v-6.3c0-0.7,0.5-1.4,1.2-1.5v-2.5c-4.3-0.6-7.6-4.2-7.6-8.6c0-4.8,4-8.7,8.8-8.7s8.8,3.9,8.8,8.7c0,4.4-3.3,8-7.6,8.6
							L23.2,31.7L23.2,31.7z M22,26.9c3.5,0,6.4-2.8,6.4-6.3s-2.9-6.3-6.4-6.3s-6.4,2.8-6.4,6.3C15.6,24.1,18.5,26.9,22,26.9
							L22,26.9z"/>
					</g>
					<g>
						<path id="g_25_" class="st2" d="M23.2,31.7c0.7,0.2,1.2,0.8,1.2,1.5v6.3c0,0.9-0.7,1.6-1.6,1.6h-1.6c-0.9,0-1.6-0.7-1.6-1.6
							v-6.3c0-0.7,0.5-1.4,1.2-1.5v-2.5c-4.3-0.6-7.6-4.2-7.6-8.6c0-4.8,4-8.7,8.8-8.7s8.8,3.9,8.8,8.7c0,4.4-3.3,8-7.6,8.6
							L23.2,31.7L23.2,31.7z M22,26.9c3.5,0,6.4-2.8,6.4-6.3s-2.9-6.3-6.4-6.3s-6.4,2.8-6.4,6.3C15.6,24.1,18.5,26.9,22,26.9
							L22,26.9z"/>
					</g>
				</g>
			</g>
		</g>
	</g>
</g>
</svg>
