<?xml version="1.0" encoding="utf-8"?>
<!-- Generator: Adobe Illustrator 24.1.1, SVG Export Plug-In . SVG Version: 6.00 Build 0)  -->
<svg version="1.1" id="圖層_1" xmlns="http://www.w3.org/2000/svg" xmlns:xlink="http://www.w3.org/1999/xlink" width="60" height="30" x="0px" y="0px"
	 viewBox="0 0 60 30" enable-background="new 0 0 60 30" xml:space="preserve">
<g>
	<g>
		<g>
			<path id="b" fill-rule="evenodd" clip-rule="evenodd" fill="#FD8B3F" d="M10.5,0.3h39c5.5,0,10,4.5,10,10v9.5c0,5.5-4.5,10-10,10
				h-39c-5.5,0-10-4.5-10-10v-9.5C0.5,4.7,5,0.3,10.5,0.3z"/>
		</g>
		<g>
			<path fill="#FDC43F" d="M49.8,2.1c4.5,0,8.1,3.7,8.1,8.3v9.2c0,4.6-3.6,8.3-8.1,8.3H10.2c-4.5,0-8.1-3.7-8.1-8.3v-9.2
				c0-4.6,3.6-8.3,8.1-8.3H49.8 M49.8,0H10.2C4.6,0,0,4.7,0,10.4v9.2C0,25.3,4.6,30,10.2,30h39.6C55.4,30,60,25.3,60,19.6v-9.2
				C60,4.7,55.4,0,49.8,0L49.8,0z"/>
		</g>
	</g>
	<g>
		<path id="d_1_" fill-rule="evenodd" clip-rule="evenodd" fill="#FFFFFF" d="M22,23h16v-7c0-0.6,0.4-1,1-1s1,0.4,1,1v8
			c0,0.6-0.4,1-1,1H21c-0.6,0-1-0.4-1-1v-8c0-0.6,0.4-1,1-1s1,0.4,1,1V23z M31,6.8V18c0,0.6-0.4,1-1,1s-1-0.4-1-1V6.9l-3.9,3.9
			c-0.4,0.4-1,0.4-1.4,0c-0.4-0.4-0.4-1,0-1.4l5.7-5.7c0.4-0.4,1-0.4,1.4,0l5.7,5.7c0.4,0.4,0.4,1,0,1.4c-0.4,0.4-1,0.4-1.4,0
			L31,6.8L31,6.8z"/>
	</g>
</g>
</svg>
