<svg xmlns="http://www.w3.org/2000/svg" xmlns:xlink="http://www.w3.org/1999/xlink" width="45" height="45" viewBox="0 0 45 45">
    <defs>
        <path id="b" d="M38 30.086a2.583 2.583 0 0 1-1.842 2.478l.387.341c.22.194.256.523.087.761l-2.429 3.095a.566.566 0 0 1-.46.239H8l.009-.07c.1-.772.44-3.195.823-4.47.433-1.43 1.01-2.178 1.99-2.567.294-.117.725-.264 1.224-.433.15-.05.302-.103.457-.157 1.081-.374 2.423-.886 2.856-1.084.346-.16.59-1.526.704-2.337-.881-.668-1.614-1.607-2.12-2.686a.328.328 0 0 1-.15.027c-.695-.033-1.674-.827-1.8-2.257-.085-.964.483-1.32.863-1.453a8.924 8.924 0 0 1-.236-2.007 7.409 7.409 0 0 1 .767-3.35L18.662 16a1.18 1.18 0 0 0 .776 0l5.385-1.884c.427.994.656 2.169.658 3.379 0 .666-.081 1.339-.232 1.996.377.112 1.019.454.929 1.474-.127 1.43-1.106 2.224-1.8 2.257a.312.312 0 0 1-.206-.059c-.507 1.091-1.246 2.043-2.136 2.718.116.81.358 2.177.705 2.337.432.198 1.774.714 2.856 1.088l.456.155c.5.17.93.315 1.224.432.981.389 1.558 1.136 1.99 2.567.126.417.246.958.356 1.523l3.225-3.568a.484.484 0 0 1 .039-.043 2.582 2.582 0 0 1 1.88-2.782l1.893-7.314a.566.566 0 1 1 1.096.288l-1.81 6.99A2.579 2.579 0 0 1 38 30.085zM9.18 11.74c-.08-.028-.13-.088-.13-.152 0-.065.05-.125.13-.153l9.773-3.418A.288.288 0 0 1 19.05 8c.033 0 .066.005.097.016l9.774 3.418c.078.028.13.088.13.153 0 .064-.052.124-.13.152l-9.774 3.418a.3.3 0 0 1-.194 0L9.179 11.74zm-.052 2.305a.731.731 0 0 1-.728-.734.73.73 0 0 1 .728-.733.73.73 0 0 1 .728.733.731.731 0 0 1-.728.734zm.017.238a.75.75 0 0 1 .75.733v4.143H8.42v-4.143c0-.405.303-.733.705-.733h.02z"/>
        <filter id="a" width="123.3%" height="124.1%" x="-11.7%" y="-8.6%" filterUnits="objectBoundingBox">
            <feOffset dy="1" in="SourceAlpha" result="shadowOffsetOuter1"/>
            <feGaussianBlur in="shadowOffsetOuter1" result="shadowBlurOuter1" stdDeviation="1"/>
            <feColorMatrix in="shadowBlurOuter1" values="0 0 0 0 0 0 0 0 0 0 0 0 0 0 0 0 0 0 0.5 0"/>
        </filter>
    </defs>
    <g fill="none" fill-rule="evenodd">
        <use fill="#000" filter="url(#a)" xlink:href="#b"/>
        <use fill="#FFF" xlink:href="#b"/>
    </g>
</svg>
