<?xml version="1.0" encoding="utf-8"?>
<!-- Generator: Adobe Illustrator 24.1.1, SVG Export Plug-In . SVG Version: 6.00 Build 0)  -->
<svg version="1.1" id="圖層_1" xmlns="http://www.w3.org/2000/svg" xmlns:xlink="http://www.w3.org/1999/xlink" width="70" height="40" x="0px" y="0px"
	 viewBox="0 0 70 40" style="enable-background:new 0 0 70 40;" xml:space="preserve">
<style type="text/css">
	.st0{fill-rule:evenodd;clip-rule:evenodd;fill:#FD8B3F;}
	.st1{fill:#FDC43F;}
	.st2{fill-rule:evenodd;clip-rule:evenodd;fill:#FFFFFF;}
</style>
<g>
	<g>
		<g id="b_2_">
			<path class="st0" d="M12,1.6H58c5.1,0,9.2,4.1,9.2,9.2v18.4c0,5.1-4.1,9.2-9.2,9.2H12c-5.1,0-9.2-4.1-9.2-9.2V10.8
				C2.8,5.7,7,1.6,12,1.6z"/>
			<path class="st1" d="M58,39.8H12C6.2,39.8,1.5,35,1.5,29.2V10.8C1.5,5,6.2,0.3,12,0.3H58c5.8,0,10.6,4.7,10.6,10.6v18.4
				C68.5,35,63.8,39.8,58,39.8z M12,3c-4.3,0-7.8,3.5-7.8,7.8v18.4c0,4.3,3.5,7.8,7.8,7.8H58c4.3,0,7.8-3.5,7.8-7.8V10.8
				C65.8,6.5,62.3,3,58,3H12z"/>
		</g>
	</g>
	<g>
		<path id="d_1_" class="st2" d="M28.5,27.9c-0.9,0.8-2.2,0.8-3.1,0c-0.8-0.8-0.8-2.1-0.1-2.9c0,0,0,0,0.1-0.1
			c0.9-0.8,2.2-0.8,3.1,0C29.4,25.7,29.4,27,28.5,27.9C28.6,27.8,28.6,27.9,28.5,27.9 M40.9,23.6h-5c-0.5,0-0.9,0.4-0.9,0.9v2.8
			c0,0.5,0.4,0.9,0.9,0.9h0.3l-2.8,2.7C33.3,31,33.2,31,33.1,31H22.6c-0.2,0-0.6-0.1-0.6-0.3V20.5c0-0.1,0.1-0.2,0.2-0.3l13.4-13
			C35.8,7,36.1,7,36.3,7c0.2,0,0.2,0.1,0.2,0.3v9.6h10.1c0.2,0,0.4,0.2,0.4,0.4c0,0.3-0.1,0.4-0.2,0.6L40.9,23.6z M36.3,24.5h10.2
			c0.3,0,0.5,0.2,0.5,0.5v1.8c0,0.3-0.2,0.5-0.5,0.5H36.3c-0.3,0-0.5-0.2-0.5-0.5V25C35.9,24.7,36.1,24.5,36.3,24.5z"/>
	</g>
</g>
</svg>
