<svg xmlns="http://www.w3.org/2000/svg" xmlns:xlink="http://www.w3.org/1999/xlink" width="45" height="45" viewBox="0 0 45 45">
    <defs>
        <path id="b" d="M29.905 21.78a.279.279 0 0 1-.281.276H18.528a.28.28 0 0 1-.282-.276V20.1a.28.28 0 0 1 .282-.276h11.096c.155 0 .281.123.281.276v1.679zm0 4.852a.28.28 0 0 1-.281.276H18.528a.28.28 0 0 1-.282-.276v-1.678a.28.28 0 0 1 .282-.277h11.096a.28.28 0 0 1 .281.277v1.678zm0 4.964a.28.28 0 0 1-.281.276H18.528a.28.28 0 0 1-.282-.276v-1.678a.28.28 0 0 1 .282-.277h11.096a.28.28 0 0 1 .281.277v1.678zM17.45 13.878c0 .76-.7 1.373-1.475 1.373H11.3c-.037 0-.075 0-.112-.003l6.22-6.066c.004.037.042.075.042.112v4.584zm-1.08 7.902a.279.279 0 0 1-.282.276h-1.712a.279.279 0 0 1-.281-.276V20.1c0-.153.126-.276.281-.276h1.712c.155 0 .281.123.281.276v1.679zm0 4.852a.279.279 0 0 1-.282.276h-1.712a.28.28 0 0 1-.281-.276v-1.678a.28.28 0 0 1 .281-.277h1.712c.155 0 .281.124.281.277v1.678zm0 4.964a.279.279 0 0 1-.282.276h-1.712a.279.279 0 0 1-.281-.276v-1.678a.28.28 0 0 1 .281-.277h1.712a.28.28 0 0 1 .281.277v1.678zM32.541 8H17.686c-.304 0-.597.114-.812.326l-6.551 6.436a1.098 1.098 0 0 0-.323.795v19.065c0 .76.602 1.378 1.377 1.378h21.165c.774 0 1.458-.618 1.458-1.378V9.369C34 8.609 33.316 8 32.542 8z"/>
        <filter id="a" width="129.2%" height="125%" x="-14.6%" y="-8.9%" filterUnits="objectBoundingBox">
            <feOffset dy="1" in="SourceAlpha" result="shadowOffsetOuter1"/>
            <feGaussianBlur in="shadowOffsetOuter1" result="shadowBlurOuter1" stdDeviation="1"/>
            <feColorMatrix in="shadowBlurOuter1" values="0 0 0 0 0 0 0 0 0 0 0 0 0 0 0 0 0 0 0.5 0"/>
        </filter>
    </defs>
    <g fill="none" fill-rule="evenodd">
        <use fill="#000" filter="url(#a)" xlink:href="#b"/>
        <use fill="#FFF" xlink:href="#b"/>
    </g>
</svg>
