<svg xmlns="http://www.w3.org/2000/svg" xmlns:xlink="http://www.w3.org/1999/xlink" width="45" height="45" viewBox="0 0 45 45">
    <defs>
        <path id="b" d="M26.154 24.51c-.234.23-.567.465-.998.707-.37.193-.733.387-1.09.58-.32.193-.518.338-.592.435-.11.133-.166.363-.166.689 0 .398-.123.7-.37.906-.234.194-.53.29-.887.29-.886 0-1.33-.399-1.33-1.196v-.907c0-.52.185-.966.554-1.34.271-.242.703-.514 1.294-.816.702-.339 1.115-.55 1.238-.635.468-.314.702-.676.702-1.087a1.31 1.31 0 0 0-.425-.997c-.419-.374-1.084-.562-1.995-.562-.69 0-1.238.145-1.645.435-.284.206-.641.635-1.072 1.287-.357.496-.77.743-1.238.743-.37 0-.672-.127-.906-.38-.246-.23-.37-.526-.37-.888 0-.628.389-1.323 1.165-2.085 1.035-1.039 2.39-1.558 4.066-1.558 1.502 0 2.728.38 3.677 1.141.887.738 1.33 1.65 1.33 2.737 0 1.088-.313 1.921-.942 2.501zm-2.735 7.775a2.134 2.134 0 0 1-1.404.508c-.53 0-.998-.17-1.405-.508-.406-.338-.61-.755-.61-1.25 0-.508.204-.925.61-1.251a2.183 2.183 0 0 1 1.405-.489c.53 0 1.004.17 1.422.507.407.315.61.725.61 1.233 0 .495-.21.912-.628 1.25zM11.3 15.251c-.038 0-.075 0-.112-.003l6.22-6.066c.004.036.042.075.042.112v4.584c0 .76-.7 1.373-1.475 1.373H11.3zM32.541 8H17.686c-.304 0-.597.114-.812.326l-6.552 6.436a1.1 1.1 0 0 0-.322.795v19.065c0 .76.602 1.378 1.377 1.378H32.54c.775 0 1.459-.618 1.459-1.378V9.369C34 8.61 33.316 8 32.541 8z"/>
        <filter id="a" width="129.2%" height="125%" x="-14.6%" y="-8.9%" filterUnits="objectBoundingBox">
            <feOffset dy="1" in="SourceAlpha" result="shadowOffsetOuter1"/>
            <feGaussianBlur in="shadowOffsetOuter1" result="shadowBlurOuter1" stdDeviation="1"/>
            <feColorMatrix in="shadowBlurOuter1" values="0 0 0 0 0 0 0 0 0 0 0 0 0 0 0 0 0 0 0.6 0"/>
        </filter>
    </defs>
    <g fill="none" fill-rule="evenodd">
        <use fill="#000" filter="url(#a)" xlink:href="#b"/>
        <use fill="#FFF" xlink:href="#b"/>
    </g>
</svg>
