<svg xmlns="http://www.w3.org/2000/svg" xmlns:xlink="http://www.w3.org/1999/xlink" width="28" height="28" viewBox="0 0 28 28">
    <defs>
        <path id="b" d="M11.556 22C17.404 22 22 17.633 22 12.444 22 6.477 17.523 2 11.556 2 6.366 2 2 6.596 2 12.444 2 17.523 6.477 22 11.556 22zm0 2C5.373 24 0 18.627 0 12.444 0 5.373 5.373 0 11.556 0 18.627 0 24 5.373 24 12.444 24 18.627 18.627 24 11.556 24z"/>
        <filter id="a" width="129.2%" height="129.2%" x="-14.6%" y="-10.4%" filterUnits="objectBoundingBox">
            <feOffset dy="1" in="SourceAlpha" result="shadowOffsetOuter1"/>
            <feGaussianBlur in="shadowOffsetOuter1" result="shadowBlurOuter1" stdDeviation="1"/>
            <feColorMatrix in="shadowBlurOuter1" values="0 0 0 0 0 0 0 0 0 0 0 0 0 0 0 0 0 0 0.5 0"/>
        </filter>
        <path id="d" d="M7.791 9.327c0-.52.167-1.047.5-1.58.335-.534.822-.976 1.462-1.326.64-.35 1.387-.525 2.241-.525.794 0 1.494.146 2.102.439.607.292 1.076.69 1.407 1.194A2.93 2.93 0 0 1 16 9.171c0 .465-.094.873-.283 1.223-.189.35-.413.653-.673.907-.26.255-.727.683-1.4 1.285-.186.17-.335.319-.447.447a1.817 1.817 0 0 0-.25.353 1.732 1.732 0 0 0-.128.32c-.03.107-.075.295-.135.563-.104.569-.43.853-.977.853a.999.999 0 0 1-.719-.279c-.194-.186-.291-.462-.291-.829 0-.46.071-.858.213-1.194.143-.337.332-.632.567-.887.235-.254.553-.557.952-.907.35-.306.603-.538.76-.694.155-.156.287-.33.393-.52.107-.192.16-.4.16-.625a1.45 1.45 0 0 0-.488-1.108c-.326-.3-.746-.451-1.26-.451-.602 0-1.045.151-1.33.455-.284.304-.525.751-.722 1.342-.186.619-.54.928-1.06.928-.306 0-.564-.108-.775-.324-.21-.216-.316-.45-.316-.702zm4.006 8.997c-.334 0-.625-.108-.874-.324-.25-.217-.374-.519-.374-.907 0-.345.12-.635.361-.87a1.22 1.22 0 0 1 .887-.354c.345 0 .635.118.87.353.235.236.353.526.353.87 0 .384-.123.685-.37.904-.246.218-.53.328-.853.328z"/>
        <filter id="c" width="185.3%" height="156.3%" x="-42.6%" y="-20.1%" filterUnits="objectBoundingBox">
            <feOffset dy="1" in="SourceAlpha" result="shadowOffsetOuter1"/>
            <feGaussianBlur in="shadowOffsetOuter1" result="shadowBlurOuter1" stdDeviation="1"/>
            <feColorMatrix in="shadowBlurOuter1" values="0 0 0 0 0 0 0 0 0 0 0 0 0 0 0 0 0 0 0.5 0"/>
        </filter>
    </defs>
    <g fill="none" fill-rule="evenodd">
        <g fill-rule="nonzero" transform="translate(2 1)">
            <use fill="#000" filter="url(#a)" xlink:href="#b"/>
            <use fill="#FFF" fill-rule="evenodd" xlink:href="#b"/>
        </g>
        <g transform="translate(2 1)">
            <use fill="#000" filter="url(#c)" xlink:href="#d"/>
            <use fill="#FFF" xlink:href="#d"/>
        </g>
    </g>
</svg>
