<?xml version="1.0" encoding="utf-8"?>
<!-- Generator: Adobe Illustrator 24.1.1, SVG Export Plug-In . SVG Version: 6.00 Build 0)  -->
<svg version="1.1" id="圖層_1" xmlns="http://www.w3.org/2000/svg" xmlns:xlink="http://www.w3.org/1999/xlink" width="49" height="50" x="0px" y="0px"
	 viewBox="0 0 49 50" enable-background="new 0 0 49 50" xml:space="preserve">
<g>
	<g>
		<circle id="b_196_" fill-rule="evenodd" clip-rule="evenodd" fill="#FD7C26" cx="24.5" cy="25" r="22"/>
	</g>
	<g transform="translate(5 4)">
		<defs>
			<filter id="Adobe_OpacityMaskFilter" filterUnits="userSpaceOnUse" x="2.3" y="5.8" width="34.3" height="37.1">
				<feColorMatrix  type="matrix" values="1 0 0 0 0  0 1 0 0 0  0 0 1 0 0  0 0 0 1 0"/>
			</filter>
		</defs>
		<mask maskUnits="userSpaceOnUse" x="2.3" y="5.8" width="34.3" height="37.1" id="g_2_">
			<g filter="url(#Adobe_OpacityMaskFilter)">
				<circle id="f_2_" fill-rule="evenodd" clip-rule="evenodd" fill="#FFFFFF" cx="19.5" cy="19.2" r="23.8"/>
			</g>
		</mask>
		<g mask="url(#g_2_)">
			<g>
				<path id="i_7_" fill-rule="evenodd" clip-rule="evenodd" fill="#FFFFFF" d="M14.2,19.1c-0.8,0-1.5-0.7-1.5-1.5s0.7-1.5,1.5-1.5
					c0.8,0,1.5,0.7,1.5,1.5C15.7,18.4,15,19.1,14.2,19.1 M16.2,15.2c-0.8-0.3-2-0.5-3.1-0.5c-1.3,0-2.4,0.2-3.1,0.7
					c-0.8,0.5-1.4,1.9-0.9,3.2c0.5,1.3,1.9,2.1,4.3,2.1c2.5,0,3.8-0.9,4.2-2.4C18,17.2,17.6,15.8,16.2,15.2 M13.7,22.4
					c0.4-0.1,0.8,0.2,0.9,0.6c0,0,0,0,0,0c0.4,1.8,2.5,3.1,5,3.1c2.6,0,4.7-1.4,5-3.4c0.1-0.4,0.5-0.7,0.9-0.6l0,0
					c0.4,0.1,0.7,0.5,0.6,0.9c-0.5,2.7-3.2,4.6-6.5,4.6c-3.2,0-5.9-1.8-6.5-4.3C13,22.9,13.3,22.5,13.7,22.4 M19.5,29.9
					c6.6,0,11.9-5.4,11.9-12c0-0.4,0-0.8-0.1-1.1c-0.1,0.1-0.2,0.1-0.3,0.1c0.1,0.7,0,1.4-0.3,2.2c-0.7,1.6-2.7,2.6-5.1,2.6
					c-0.1,0-0.2,0-0.2,0c-3.7-0.1-4.8-1.9-5-3c-0.1-0.4-0.1-0.8-0.1-1.2h-1.5c0,0.4,0,0.8-0.1,1.2c-0.3,1.1-1.3,2.9-5,3
					c-0.1,0-0.2,0-0.2,0c-2.4,0-4.4-1.1-5.1-2.6c-0.3-0.8-0.4-1.5-0.3-2.2c-0.1,0-0.2-0.1-0.3-0.1c0,0.4-0.1,0.8-0.1,1.1
					C7.6,24.5,12.9,29.9,19.5,29.9 M24.7,19.1c-0.8,0-1.5-0.7-1.5-1.5c0-0.8,0.7-1.5,1.5-1.5s1.5,0.7,1.5,1.5
					C26.1,18.4,25.5,19.1,24.7,19.1 M28.9,15.5c-0.7-0.5-1.8-0.7-3.1-0.7c-1.1,0-2.2,0.2-3.1,0.5c-1.4,0.5-1.7,2-1.5,3.1
					c0.4,1.4,1.6,2.4,4.2,2.4c2.5,0,3.8-0.8,4.3-2.1C30.4,17.3,29.8,16,28.9,15.5 M9.2,14.7c1.1-0.7,2.9-0.9,3.9-0.9
					c1.2,0,2.5,0.2,3.4,0.5c1,0.4,1.8,1.2,2.1,2.3h1.7c0.3-1.1,1-1.9,2.1-2.3c0.9-0.3,2.2-0.5,3.4-0.5c1.1,0,2.8,0.2,3.9,0.9
					c0.3,0.2,0.5,0.4,0.7,0.7c0.3,0,0.5,0.1,0.7,0.1c-1.1-5.5-5.9-9.7-11.7-9.7c-5.8,0-10.7,4.2-11.7,9.7c0.2-0.1,0.5-0.1,0.7-0.1
					C8.7,15.1,8.9,14.9,9.2,14.7 M26.7,29.9c-2.1,1.2-4.6,1.7-7.2,1.7c-2.6,0-5.1-0.5-7.2-1.7c-4.6,1.2-8.3,6.7-9.9,13h34.3
					C35,36.6,31.4,31.1,26.7,29.9"/>
			</g>
		</g>
	</g>
	<g>
		
			<circle id="b_1_" fill-rule="evenodd" clip-rule="evenodd" fill="none" stroke="#FDC43F" stroke-width="3.3" stroke-miterlimit="10" cx="24.5" cy="25" r="22"/>
	</g>
</g>
</svg>
