<?xml version="1.0" encoding="utf-8"?>
<!-- Generator: Adobe Illustrator 24.1.1, SVG Export Plug-In . SVG Version: 6.00 Build 0)  -->
<svg version="1.1" id="圖層_1" xmlns="http://www.w3.org/2000/svg" xmlns:xlink="http://www.w3.org/1999/xlink" width="70" height="40" x="0px" y="0px"
	 viewBox="0 0 70 40" style="enable-background:new 0 0 70 40;" xml:space="preserve">
<style type="text/css">
	.st0{fill-rule:evenodd;clip-rule:evenodd;fill:#FD8B3F;}
	.st1{fill:#FDC43F;}
	.st2{fill-rule:evenodd;clip-rule:evenodd;fill:#FFFFFF;}
</style>
<g>
	<g>
		<g id="b_1_">
			<path class="st0" d="M12,1.6H58c5.1,0,9.2,4.1,9.2,9.2v18.4c0,5.1-4.1,9.2-9.2,9.2H12c-5.1,0-9.2-4.1-9.2-9.2V10.8
				C2.8,5.7,7,1.6,12,1.6z"/>
			<path class="st1" d="M58,39.8H12C6.2,39.8,1.5,35,1.5,29.2V10.8C1.5,5,6.2,0.3,12,0.3H58c5.8,0,10.6,4.7,10.6,10.6v18.4
				C68.5,35,63.8,39.8,58,39.8z M12,3c-4.3,0-7.8,3.5-7.8,7.8v18.4c0,4.3,3.5,7.8,7.8,7.8H58c4.3,0,7.8-3.5,7.8-7.8V10.8
				C65.8,6.5,62.3,3,58,3H12z"/>
		</g>
	</g>
	<g>
		<g>
			<g id="d_23_">
				<path class="st2" d="M46.2,24.8h-3.4v-3.5c0-0.2-0.2-0.7-0.5-0.7h-1.9c-0.2,0-0.3,0.4-0.3,0.7v3.5h-3.6c-0.2,0-0.7,0-0.7,0.3
					v1.9c0,0.2,0.4,0.4,0.7,0.4h3.6v3.3c0,0.2,0,0.3,0.3,0.3h1.9c0.2,0,0.5-0.1,0.5-0.3v-3.3h3.4c0.2,0,0.4-0.2,0.4-0.4v-1.9
					C46.6,24.8,46.5,24.8,46.2,24.8 M28.6,27.9c-0.8,0.8-2.2,0.8-3,0c-0.8-0.8-0.8-2.1-0.1-2.9c0,0,0,0,0.1-0.1c0.8-0.8,2.2-0.8,3,0
					C29.4,25.7,29.5,27,28.6,27.9C28.6,27.9,28.6,27.9,28.6,27.9 M46.5,17h-10V7.5c0-0.2,0-0.3-0.2-0.3h0c-0.2,0-0.4,0-0.6,0.2
					L22.3,20.3c-0.1,0.1-0.2,0.2-0.2,0.3v10.2c0,0.2,0.4,0.3,0.6,0.3h10.4c0.1,0,0.2,0,0.3-0.1l2.5-2.3c-0.7-0.3-1-1-1-1.7v-1.9
					c0-1,0.6-1.8,1.7-1.8h2v-1.9c0-1,0.8-1.7,1.9-1.7h1.9c0.8,0,1.4,0.4,1.7,1l2.6-2.6c0.2-0.2,0.2-0.3,0.2-0.6
					C46.9,17.2,46.7,17,46.5,17"/>
			</g>
		</g>
		<g>
			<g id="d_22_">
				<path class="st2" d="M46.2,24.8h-3.4v-3.5c0-0.2-0.2-0.7-0.5-0.7h-1.9c-0.2,0-0.3,0.4-0.3,0.7v3.5h-3.6c-0.2,0-0.7,0-0.7,0.3
					v1.9c0,0.2,0.4,0.4,0.7,0.4h3.6v3.3c0,0.2,0,0.3,0.3,0.3h1.9c0.2,0,0.5-0.1,0.5-0.3v-3.3h3.4c0.2,0,0.4-0.2,0.4-0.4v-1.9
					C46.6,24.8,46.5,24.8,46.2,24.8 M28.6,27.9c-0.8,0.8-2.2,0.8-3,0c-0.8-0.8-0.8-2.1-0.1-2.9c0,0,0,0,0.1-0.1c0.8-0.8,2.2-0.8,3,0
					C29.4,25.7,29.5,27,28.6,27.9C28.6,27.9,28.6,27.9,28.6,27.9 M46.5,17h-10V7.5c0-0.2,0-0.3-0.2-0.3h0c-0.2,0-0.4,0-0.6,0.2
					L22.3,20.3c-0.1,0.1-0.2,0.2-0.2,0.3v10.2c0,0.2,0.4,0.3,0.6,0.3h10.4c0.1,0,0.2,0,0.3-0.1l2.5-2.3c-0.7-0.3-1-1-1-1.7v-1.9
					c0-1,0.6-1.8,1.7-1.8h2v-1.9c0-1,0.8-1.7,1.9-1.7h1.9c0.8,0,1.4,0.4,1.7,1l2.6-2.6c0.2-0.2,0.2-0.3,0.2-0.6
					C46.9,17.2,46.7,17,46.5,17"/>
			</g>
		</g>
	</g>
</g>
</svg>
