<svg xmlns="http://www.w3.org/2000/svg" xmlns:xlink="http://www.w3.org/1999/xlink" width="45" height="45" viewBox="0 0 45 45">
    <defs>
        <path id="b" d="M28.38 26.358C31.464 27.567 33.864 31.46 35 36H10c1.14-4.54 3.546-8.418 6.634-9.621.54.37 1.115.51 1.72.771a10.29 10.29 0 0 0 4.145.89c1.437 0 2.833-.244 4.147-.818.61-.266 1.19-.491 1.735-.864zm-5.881-.376c-4.808 0-8.704-4.024-8.704-8.992 0-4.966 3.896-8.99 8.704-8.99 4.808 0 8.705 4.024 8.705 8.99 0 4.968-3.897 8.992-8.705 8.992zm-4.71-6.357a.64.64 0 0 0-.474.76c.435 2.091 2.636 3.61 5.234 3.61 2.708 0 4.876-1.583 5.273-3.848a.64.64 0 0 0-.5-.744.621.621 0 0 0-.718.516c-.289 1.646-1.956 2.797-4.055 2.797-1.985 0-3.716-1.118-4.024-2.6a.62.62 0 0 0-.735-.49zm.877-3.891c-.587 0-1.062.49-1.062 1.095s.475 1.096 1.062 1.096c.585 0 1.06-.49 1.06-1.096 0-.605-.475-1.095-1.06-1.095zm7.604 0c-.587 0-1.06.49-1.06 1.095s.473 1.096 1.06 1.096c.586 0 1.061-.49 1.061-1.096 0-.605-.475-1.095-1.06-1.095z"/>
        <filter id="a" width="128%" height="125%" x="-14%" y="-8.9%" filterUnits="objectBoundingBox">
            <feOffset dy="1" in="SourceAlpha" result="shadowOffsetOuter1"/>
            <feGaussianBlur in="shadowOffsetOuter1" result="shadowBlurOuter1" stdDeviation="1"/>
            <feColorMatrix in="shadowBlurOuter1" values="0 0 0 0 0 0 0 0 0 0 0 0 0 0 0 0 0 0 0.5 0"/>
        </filter>
    </defs>
    <g fill="none" fill-rule="evenodd">
        <use fill="#000" filter="url(#a)" xlink:href="#b"/>
        <use fill="#FFF" xlink:href="#b"/>
    </g>
</svg>
