<svg xmlns="http://www.w3.org/2000/svg" xmlns:xlink="http://www.w3.org/1999/xlink" width="45" height="45" viewBox="0 0 45 45">
    <defs>
        <path id="b" d="M22.85 31.64c-.71 0-1.286-.557-1.286-1.245 0-.688.576-1.245 1.286-1.245.71 0 1.286.557 1.286 1.245 0 .688-.576 1.245-1.286 1.245m-3.6 0c-.71 0-1.286-.557-1.286-1.245 0-.688.576-1.245 1.286-1.245.71 0 1.285.557 1.285 1.245 0 .688-.575 1.245-1.285 1.245m-3.6 0c-.71 0-1.285-.557-1.285-1.245 0-.688.575-1.245 1.285-1.245s1.286.557 1.286 1.245c0 .688-.576 1.245-1.286 1.245m3.6-8.58c-4.647 0-8.414 3.285-8.414 7.335 0 1.816.757 3.477 2.01 4.758-.073.376-.194.862-.357 1.137C11.823 37.417 10.67 38 10.67 38h1.614c.858 0 1.708-.545 2.397-1.013.08-.059.156-.184.226-.241 1.269.667 2.755 1.017 4.343 1.017 4.647 0 8.414-3.3 8.414-7.352 0-4.05-3.767-7.35-8.414-7.35m14.956-4.356c.006-.111.01-.223.01-.335 0-3.07-2.578-5.567-5.747-5.567-.702 0-1.387.121-2.03.357a8.392 8.392 0 0 0-2.467-2.629A8.7 8.7 0 0 0 19.012 9c-4.723 0-8.566 3.722-8.566 8.297 0 .348.023.695.068 1.04a7.826 7.826 0 0 0-2.946 2.451C6.557 22.166 6 23.834 6 25.484c0 1.997.799 3.91 2.25 5.387.11.113.224.222.34.328a8.597 8.597 0 0 1 .434-3.65 5.05 5.05 0 0 1-.45-2.073c0-2.343 1.618-4.556 3.765-5.16l1.21-.34-.326-1.179a5.653 5.653 0 0 1-.203-1.5c0-3.2 2.688-5.804 5.992-5.804 2.506 0 4.769 1.53 5.63 3.809l.585 1.55 1.38-.97a3.221 3.221 0 0 1 1.862-.586c1.75 0 3.174 1.379 3.174 3.074 0 .244-.03.489-.09.728l-.256 1.017.99.416c1.82.77 3.14 2.958 3.14 5.058 0 2.86-2.443 5.474-5.226 5.474h-.264c-.046.77-.22 1.798-.518 2.569h.782c4.227 0 7.799-3.743 7.799-8.005 0-2.75-1.521-5.547-3.794-6.922"/>
        <filter id="a" width="121.9%" height="124.1%" x="-10.9%" y="-8.6%" filterUnits="objectBoundingBox">
            <feOffset dy="1" in="SourceAlpha" result="shadowOffsetOuter1"/>
            <feGaussianBlur in="shadowOffsetOuter1" result="shadowBlurOuter1" stdDeviation="1"/>
            <feColorMatrix in="shadowBlurOuter1" values="0 0 0 0 0 0 0 0 0 0 0 0 0 0 0 0 0 0 0.5 0"/>
        </filter>
    </defs>
    <g fill="none" fill-rule="evenodd">
        <use fill="#000" filter="url(#a)" xlink:href="#b"/>
        <use fill="#FFF" xlink:href="#b"/>
    </g>
</svg>
