<?xml version="1.0" encoding="utf-8"?>
<!-- Generator: Adobe Illustrator 24.1.1, SVG Export Plug-In . SVG Version: 6.00 Build 0)  -->
<svg version="1.1" id="圖層_1" xmlns="http://www.w3.org/2000/svg" xmlns:xlink="http://www.w3.org/1999/xlink" x="0px" y="0px"
	 width="45px" height="45px" viewBox="0 0 45 45" enable-background="new 0 0 45 45" xml:space="preserve">
<g>
	<path fill="#FFFFFF" d="M28.9,22.9c0,0-0.1,0-0.1,0l-0.1,0l-0.1,0.1l-0.3,0.1l-0.6,0.3l-1.1,0.6l-1.2,0.6L24.8,25
		c-0.1,0-0.2,0.1-0.2,0.1l0,0c0,0,0,0,0,0c0,0,0,0,0,0c0,0,0,0.1,0,0.2c0,0,0,0,0,0c0,0,0,0,0,0c0,0,0.1,0.1,0.1,0.1c0,0,0,0,0.1,0
		l0.1,0c0.2-0.1,0.3-0.1,0.4-0.2l0.6-0.3l1.2-0.5l1.2-0.5l0.6-0.3l0.1-0.1l0.1,0l0,0c0,0,0,0,0,0c0,0,0,0,0.1-0.1
		c0.1-0.1,0.1-0.2,0-0.3C29.1,23,29,22.9,28.9,22.9z"/>
	<path fill="#FFFFFF" d="M21.3,25.2C21.3,25.2,21.3,25.2,21.3,25.2L21.3,25.2C21.1,25.1,21.1,25,21,25l-0.6-0.4l-1.1-0.8l-1.1-0.8
		l-0.6-0.4l-0.3-0.2l-0.1-0.1L17,22.2c0,0-0.1-0.1-0.1-0.1c-0.1,0-0.2,0-0.3,0.1c-0.1,0.1-0.1,0.2,0,0.3c0,0,0,0,0.1,0.1
		c0,0,0,0,0,0l0,0l0.1,0l0.1,0.1l0.6,0.4l1.2,0.8l1.2,0.8l0.6,0.4l0.3,0.2l0.1,0.1c0,0,0.1,0,0.1,0.1l0,0c0,0,0,0,0,0c0,0,0,0,0.1,0
		c0,0,0.1,0,0.1,0c0,0-0.1,0-0.1,0c0.1,0,0.1,0,0.1-0.1c0,0,0,0,0,0c0,0,0,0,0,0c0,0,0,0,0-0.1c0,0,0,0,0,0
		C21.3,25.3,21.3,25.2,21.3,25.2C21.3,25.2,21.3,25.2,21.3,25.2z"/>
	<path fill="#FFFFFF" d="M34.5,15.1c-0.2-0.2-0.6-0.4-0.9-0.4h-0.1c-0.2-0.4-0.5-1.1-0.5-2.3c0-0.8,0.1-1.4,0.3-1.8
		c0.6-0.1,1.1-0.4,1.1-1.1c0-0.7-0.6-1.1-1.3-1.1H14.1c0,0,0,0-0.1,0c-2.2,0-3.9,2-3.9,4.4c0,0,0,0,0,0c0,0,0,0,0,0v19.2l0,0
		c0,2.4,1.7,4.3,3.9,4.4c0,0,0,0,0,0h19.3c0.9,0,1.6-0.7,1.6-1.6V16.1C34.9,15.7,34.7,15.4,34.5,15.1z M28.5,26.8
		c-0.6,0.4-1.3,0.5-1.9,0.6c-1.3,0.1-2.5-0.2-3.2-0.5v3.8c0,0.3-0.2,0.5-0.5,0.5s-0.5-0.2-0.5-0.5v-3.9c-0.7,0.2-2.1,0.5-3.4,0.3
		c-0.7-0.1-1.4-0.3-2-0.7c-2.3-1.6-2.4-5.3-2.4-5.4c0-0.1,0.1-0.2,0.2-0.3c0.1-0.1,3.6-1.3,6,0.3c1.5,1,2.1,3.1,2.3,4.3
		c0.3-1.2,0.9-2.9,2.4-3.8c2.3-1.3,5.5,0,5.6,0.1c0.1,0,0.2,0.2,0.2,0.3C31.1,21.9,30.8,25.4,28.5,26.8z M14.4,14.7c0,0-0.2,0-0.3,0
		c-0.8,0-1.4-1.1-1.4-2c0-1,0.6-2,1.4-2H32c-0.1,0.5-0.2,1.1-0.2,1.8c0,1,0.2,1.7,0.4,2.3H14.4z"/>
</g>
</svg>
