<svg xmlns="http://www.w3.org/2000/svg" xmlns:xlink="http://www.w3.org/1999/xlink" width="45" height="45" viewBox="0 0 45 45">
    <defs>
        <path id="b" d="M25.461 23.985c-.32-.142-.544-1.357-.65-2.078.821-.601 1.503-1.447 1.971-2.418.05.036.113.056.191.052.642-.028 1.545-.736 1.661-2.008.083-.907-.509-1.21-.857-1.31a7.66 7.66 0 0 0 .213-1.776c0-1.077-.212-2.121-.606-3.006l-4.973 1.676a1.119 1.119 0 0 1-.715 0l-4.87-1.641c-.453.869-.71 1.88-.709 2.98.001.596.077 1.198.219 1.786-.352.117-.875.435-.797 1.29.117 1.273 1.02 1.98 1.661 2.009a.312.312 0 0 0 .14-.024c.467.96 1.144 1.795 1.957 2.39-.107.721-.33 1.936-.65 2.078-.14.062-.384.158-.683.271 2.092.7 3.62 1.597 3.699 1.645l.16.094.2-.11a24.788 24.788 0 0 1 3.99-1.678c-.239-.092-.433-.17-.552-.222zM36 29.59c0-.885-.74-1.603-1.651-1.603h-.272c-.912 0-1.651.718-1.651 1.603v3.154c0 .885.739 1.603 1.65 1.603h.273c.912 0 1.651-.718 1.651-1.603V29.59zm-4.369 3.172v-3.206c0-1.325 1.156-2.34 2.522-2.34h.258V25.07c0-.855-.95-.871-.95-.871-1.208-.036-3.518-.009-5.557.457-2.807.641-5.209 2.017-5.209 2.017V40s2.678-1.74 5.442-2.509c1.815-.505 4.106-.713 5.327-.802 0 0 .947-.028.947-.882v-.69h-.258c-1.366 0-2.522-1.03-2.522-2.355zM11.574 29.59c0-.885-.739-1.603-1.65-1.603H9.65C8.74 27.987 8 28.705 8 29.59v3.154c0 .885.74 1.603 1.651 1.603h.272c.912 0 1.651-.718 1.651-1.603V29.59zm-1.02-5.392s-.965.016-.965.871v2.147h.29c1.365 0 2.49 1.015 2.49 2.34v3.206c0 1.325-1.125 2.356-2.49 2.356h-.29v.689c0 .854.97.882.97.882 1.22.09 3.494.297 5.309.802 2.764.77 5.437 2.509 5.437 2.509V26.672s-2.394-1.376-5.201-2.017c-2.04-.466-4.341-.493-5.55-.457zm2.355-12.592h-.018c-.371 0-.72.274-.72.634v3.799h1.39V12.24a.63.63 0 0 0-.652-.634zm-.015-.23a.662.662 0 0 0 .672-.652c0-.36-.3-.653-.672-.653a.663.663 0 0 0-.673.653c0 .36.302.652.673.652zm.047-2.05l9.023 3.041a.283.283 0 0 0 .179 0l9.024-3.041c.073-.025.12-.077.12-.135 0-.058-.047-.111-.12-.136l-9.024-3.04a.282.282 0 0 0-.179 0l-9.023 3.04c-.073.025-.12.078-.12.136 0 .058.047.11.12.135z"/>
        <filter id="a" width="125%" height="120.6%" x="-12.5%" y="-7.4%" filterUnits="objectBoundingBox">
            <feOffset dy="1" in="SourceAlpha" result="shadowOffsetOuter1"/>
            <feGaussianBlur in="shadowOffsetOuter1" result="shadowBlurOuter1" stdDeviation="1"/>
            <feColorMatrix in="shadowBlurOuter1" values="0 0 0 0 0 0 0 0 0 0 0 0 0 0 0 0 0 0 0.6 0"/>
        </filter>
    </defs>
    <g fill="none" fill-rule="evenodd">
        <use fill="#000" filter="url(#a)" xlink:href="#b"/>
        <use fill="#FFF" xlink:href="#b"/>
    </g>
</svg>
