<svg xmlns="http://www.w3.org/2000/svg" xmlns:xlink="http://www.w3.org/1999/xlink" width="23" height="23" viewBox="0 0 23 23">
    <defs>
        <path id="b" d="M17.565 21.843c2.98.397 4.496 1.003 6.678 1.768V10.63c-2.166.76-3.685 1.37-6.678 1.767v9.447zM26.748 8.8c-.691 0-1.252.573-1.252 1.28v14.08c0 .707.56 1.28 1.252 1.28S28 24.867 28 24.16V10.08c0-.707-.56-1.28-1.252-1.28zM16.87 23.046a25.701 25.701 0 0 0-2.853-.166h-.835c-.042 0-.083-.005-.125-.006l.584 3.526c.153.927.932 1.6 1.852 1.6 1.144 0 2.014-1.051 1.826-2.203l-.449-2.75zm-5.566-4.116a1.921 1.921 0 0 1-1.252-1.81c0-.835.524-1.546 1.252-1.81v3.62zm2.713 2.67c.757 0 1.527.037 2.296.104v-9.168c-.769.067-1.539.104-2.296.104h-.835c-.832 0-1.531.56-1.777 1.329-1.477.256-2.605 1.57-2.605 3.151 0 1.581 1.128 2.894 2.605 3.151.246.769.945 1.329 1.777 1.329h.835z"/>
        <filter id="a" width="131.2%" height="131.2%" x="-15.6%" y="-15.6%" filterUnits="objectBoundingBox">
            <feOffset in="SourceAlpha" result="shadowOffsetOuter1"/>
            <feGaussianBlur in="shadowOffsetOuter1" result="shadowBlurOuter1" stdDeviation="1"/>
            <feColorMatrix in="shadowBlurOuter1" values="0 0 0 0 0 0 0 0 0 0 0 0 0 0 0 0 0 0 0.7 0"/>
        </filter>
    </defs>
    <g fill="none" fill-rule="evenodd">
        <path d="M-7-7h36v36H-7z"/>
        <g transform="translate(-7 -7)">
            <use fill="#000" filter="url(#a)" xlink:href="#b"/>
            <use fill="#FFF" xlink:href="#b"/>
        </g>
    </g>
</svg>
